<?xml version="1.0" standalone="no"?>
<!DOCTYPE svg PUBLIC "-//W3C//DTD SVG 20010904//EN"
 "http://www.w3.org/TR/2001/REC-SVG-20010904/DTD/svg10.dtd">
<svg version="1.0" xmlns="http://www.w3.org/2000/svg"
 width="625.000000pt" height="625.000000pt" viewBox="0 0 625.000000 625.000000"
 preserveAspectRatio="xMidYMid meet">
<metadata>
Created by potrace 1.14, written by Peter Selinger 2001-2017
</metadata>
<g transform="translate(0.000000,625.000000) scale(0.100000,-0.100000)"
fill="#000000" stroke="none">
<path d="M2883 6235 c-601 -107 -1025 -748 -1025 -1548 0 -180 15 -313 57
-507 3 -14 7 -36 10 -50 10 -52 79 -269 97 -303 8 -16 6 -17 -19 -10 -47 12
-205 8 -258 -7 -212 -58 -395 -235 -528 -510 -110 -228 -159 -461 -152 -725 2
-82 6 -161 8 -175 15 -88 21 -113 44 -189 34 -115 106 -264 150 -309 27 -28
31 -51 28 -172 -8 -352 92 -649 286 -851 76 -78 110 -103 404 -294 259 -169
479 -311 630 -410 271 -177 580 -217 889 -114 84 28 234 99 259 123 7 6 30 23
52 37 84 55 213 189 313 324 80 109 149 255 227 485 24 69 98 285 165 480 67
195 162 474 211 620 50 146 110 324 135 395 25 72 46 137 49 145 2 8 51 157
110 330 138 412 148 447 148 550 1 68 -3 93 -20 125 -26 51 -87 106 -178 165
-38 24 -72 48 -75 52 -3 4 -14 11 -25 15 -23 10 -225 143 -225 148 0 3 12 30
26 62 22 49 78 215 89 263 67 296 67 550 -2 750 -21 62 -75 180 -82 180 -4 0
-12 13 -19 28 -26 59 -231 242 -271 242 -5 0 -11 3 -13 8 -1 4 -106 74 -233
156 -126 83 -313 205 -415 271 -102 67 -203 131 -226 143 -60 31 -160 62 -241
76 -94 17 -289 17 -380 1z"/>
</g>
</svg>
