<?xml version="1.0" encoding="UTF-8"?>
<svg width="514px" height="436px" viewBox="0 0 514 436" xmlns="http://www.w3.org/2000/svg" xmlns:xlink="http://www.w3.org/1999/xlink" version="1.1">
 <!-- Generated by Pixelmator Pro 2.2 -->
 <path id="Path" d="M45.2 167.3 C42.2 163.9 37.1 160.7 29.7 161.2 20.5 161.9 12.4 168.4 6.8 179.7 2.1 189.2 -0.4 201.2 0.1 212.7 0.6 227 5.2 238.6 12.9 246.5 L30 264.6 C37.5 272.8 48.1 277.3 61.2 277.3 75.2 277.3 87.8 270.5 95.9 258.8 97.9 255.9 99.7 252.5 101.3 248.5 L108.6 256.6 117.4 255.5 100.4 301.3 C98.8 305.5 97.2 309.6 95.6 313.6 L88.5 305.8 77.3 300.2 C64.3 293.7 50.7 296 38.8 306.8 19.8 324 10.6 358.4 19 380.3 20.8 385 23.4 389 26.5 392.2 L43.6 410.3 C50 417.4 59.3 421.3 70.6 421.3 100.2 421.3 120.7 393.4 136.6 359.2 L146.3 369.7 154.5 368.5 C153.3 373.6 152.6 378.7 152.6 383.7 152.6 392.5 154.8 400.1 158.9 405.7 L178.4 426.6 C182.2 430.8 188.6 435.1 199 435.1 226.3 435.1 251.6 407.3 276.3 350 L382.1 334 C390.2 332.9 393.6 328.9 395 325.8 395.3 325 395.6 324.3 395.8 323.5 L405.9 334.2 C409.8 338 416.5 342.4 427.2 342.4 428.1 342.4 429 342.4 430 342.3 439.6 341.7 447.7 337.2 453.5 329.5 459.8 321 463.2 308.8 463.8 293.1 464.2 280.9 462.8 266.9 459.8 253.9 459.5 252.6 459.2 251.3 459 250 462.1 251.8 466.6 253 472 252.3 490.5 249.7 502.4 223.1 500.6 201.1 499.9 192.3 496.6 184.9 491.5 179.7 L486.2 174.1 C500.6 164.5 511 148.4 513.5 133.8 514.8 126 512.3 121 509.9 118.1 L491.7 98.8 C487.6 94.3 482 93 478.8 92.6 L476.4 90.1 C480.5 82 485.6 71.3 488.4 63.7 L489.7 60.2 487.7 57 C486.5 55.1 485.1 53.4 483.6 51.9 L466.5 33.8 C460.8 27.5 453.4 24.9 445.7 26.7 432.8 29.7 421.2 45.5 419.3 62.6 418.3 71.6 419.9 79.6 424.2 86.3 424 86.7 423.9 87 423.7 87.4 L417.9 81.2 C413.8 76.6 407.5 74.4 399.9 75.3 388.9 76.7 378.4 83.4 369.4 94.7 369.4 94.7 369.4 94.7 369.3 94.7 L365.1 90.3 C374.5 64.9 382.2 44.2 383.6 40.1 386 33.3 383.7 28.6 382.1 26.5 L363.5 6.8 C357.9 0.3 347.1 0.4 343.9 0.7 L339 1 301.1 103.1 297.7 99.5 C292.1 93 281.3 93.1 278.1 93.4 L273.3 93.7 272.9 94.6 C269.5 92.8 265.3 92.1 260.8 92.7 250.3 94 240.8 100.9 233.1 110.4 L227.8 104.8 C223.7 100.1 217.3 97.8 209.6 98.8 198.5 100.2 188.8 106.7 181 115.7 L175.7 110.1 C173.6 107.6 169.9 105.2 163.7 105.2 157.7 105.2 151.6 107.8 145.4 113 145.8 109.6 146 106.2 146 103 146 90.3 143.2 79.9 137.8 72.1 136.8 70.6 135.6 69.3 134.4 68 L117.3 49.9 C110.7 42.5 101.4 38.7 90 38.7 73.3 38.7 58.4 47.1 47.9 62.4 31.7 86.1 29.3 120.7 41.7 152.7 43.9 158.4 46 164.5 47.8 170.7 Z" fill="#000000" fill-opacity="1" stroke="none"/>
 <path id="Path-1" d="M67 140.9 C50.6 98.6 75.7 59.2 91.9 59.2 116.1 59.2 95.1 126.7 77.4 144.4 77.2 144.6 82 149.5 89.1 149.5 114 149.5 145 45.8 90.2 45.8 52.1 45.8 29 98.1 48.9 149.6 69.9 203.9 63.1 235.8 42.6 235.8 22.1 235.8 27 194.6 41.1 174.6 41.1 174.6 38.4 168.2 30.3 168.8 3.9 170.7 -8.3 251 43.2 251 70 250.9 97.9 220.6 67 140.9 Z" fill="#ffffff" fill-opacity="1" stroke="none"/>
 <path id="Path-2" d="M271 225.4 C271 225.4 270.3 227.6 269 231.6 267.2 225.9 262.5 223 255.9 223.9 236.9 226.2 219.7 254.5 215.1 277.3 211.9 283.6 204.5 297.1 198.1 298.8 192.4 300.3 197.7 288.7 201 280 205.9 266.9 212 251.3 214.5 244.3 218.7 232.6 200.3 233.8 200.3 233.8 200.3 233.8 199 237.3 197 242.6 195.6 235.7 190.7 232.2 183.4 233.1 150.2 237.2 122.5 320.1 157.8 315.6 165.9 314.6 172.6 309.1 177.7 302.7 178.6 308.6 182.3 312.6 190.6 311.4 200.7 310 208.7 301.5 214.2 293.1 215.5 301.9 220.4 307.6 230.3 306.3 235.8 305.6 240.6 302.9 244.8 299.2 243.1 303.5 241.3 307.9 239.5 312.3 188.5 318.5 140.8 324.4 135.3 325.1 123 326.7 132.5 342.5 132.5 342.5 L233.2 327.3 C217.1 363.7 198.6 395.8 183.7 395.8 168.6 395.8 189.2 353.9 200.5 342.6 197.5 339.6 194.4 338 190.3 338 163 338 144 408.6 181.5 408.6 210.9 408.6 235.8 366.4 253.6 324.2 L363.6 307.6 C375.9 306 369.6 296.5 369.6 296.5 369.6 296.5 315.6 303.1 259.4 309.9 271.4 279 279.4 250.7 282.3 242.4 L284.5 235.8 C288.7 224.1 271.3 225.3 271.3 225.3 M166.7 303.1 C147.7 309.1 173.7 247.7 185.2 243.7 191.7 241.4 191.9 256.5 188.4 265.1 188.1 265.9 187.8 266.7 187.5 267.4 185.2 273.4 183.1 279 181.6 283.1 178.5 289.7 172.5 301.2 166.7 303.1 Z M256.1 269.2 C256.1 269.2 247.6 291.2 239.2 293.9 220.2 299.9 246.2 238.5 257.7 234.5 263.6 232.4 264.3 244.6 261.8 253.3 261.4 254.4 261 255.6 260.6 256.8 260.2 257.7 259.9 258.6 259.7 259.4 258.6 262.6 257.4 265.9 256.2 269.4 Z" fill="#ffffff" fill-opacity="1" stroke="none"/>
 <path id="Path-3" d="M152.6 222.5 L328.6 201 C340.9 199.4 331.4 183.6 331.4 183.6 331.4 183.6 109.6 210.6 97.3 212.2 85 213.8 94.5 229.6 94.5 229.6 L136.9 224.4 107.4 303.9 C95.3 336.5 71.9 384.2 52.1 384.2 28.5 384.2 45.5 327.1 73.9 306.9 31.3 285.5 -3.7 394.7 52.7 394.7 88 394.7 110.1 345.3 125.5 303.9 L153.1 229.2 C154.3 226.2 153.9 224 152.6 222.5 Z" fill="#ffffff" fill-opacity="1" stroke="none"/>
 <path id="Path-4" d="M476.5 100 C476.5 100 461.4 142.8 447.5 144.3 439.5 145.2 457.6 113.3 462.7 99.4 468.4 84.1 457.9 83.1 446.1 78.4 447.8 75.3 458.7 54.2 463.3 42 450.2 21.7 429.1 41.7 426.7 63.3 425.7 72.3 427.7 79.4 432.8 85.3 424.6 102.9 401.2 150.2 383.6 152.4 378.4 153 376.8 149.4 377.2 143.7 415.3 132.5 428.6 79.2 400.7 82.7 374.6 85.9 354.6 128.2 358.8 151.3 357 154.3 354.1 157.4 349.6 157 342.9 156.5 337.9 143.4 335.2 133.5 342.3 129.5 349.4 124.1 354.5 116.6 373.3 89.2 347.3 91.2 347.3 91.2 347.3 91.2 341.1 113.9 319.3 124.7 335.2 81.8 356.1 25.4 358.7 18.3 362.9 6.6 344.5 7.8 344.5 7.8 L295.3 140.7 C295.3 140.7 285.1 163.2 276.7 165.5 271 167 276.3 155.4 279.6 146.7 284.5 133.6 290.6 118 293.1 111 297.3 99.3 278.9 100.5 278.9 100.5 278.9 100.5 277.6 104 275.6 109.3 274.2 102.4 269.3 98.9 262 99.8 245.6 101.8 230.5 123.1 223.8 143.6 216.5 156.5 204.1 175.4 193.7 176.6 188.3 177.3 186.7 173.2 187.4 166.8 225.5 155.6 238.7 102.4 210.8 105.8 187 108.7 168.3 143.7 168.3 167.1 165 172.8 160.6 178.6 156.3 179.2 149.4 180 158.7 158.8 166.6 140 174 122.2 174.4 112.2 163.9 112.2 150.5 112.2 136.7 132.1 126 152.6 129.7 142.8 132.9 134.1 134.3 130.3 138.5 118.6 120.1 119.8 120.1 119.8 L95 186.7 C91.8 195.7 101.9 197 106.7 197.2 L109.2 197.2 C109.2 197.2 142.2 131.6 149.8 130.6 157.4 129.6 115.1 197.1 147.9 193 157 191.8 164.4 184.9 169.8 177.4 172.3 184.9 178.2 189.4 188.2 188.2 200.8 186.7 211.7 175.9 220 164.2 220 175.8 224.7 184 236.4 182.5 244.5 181.5 251.2 176 256.3 169.6 257.2 175.5 260.9 179.5 269.2 178.3 275.9 177.3 281.7 173.3 286.4 168.2 288.1 174.8 301 174 301 174 301 174 305.9 160.9 312.8 142.2 314.3 141.8 316.1 141.4 318.3 140.7 326.8 167.5 335.6 170.1 347.2 168.7 353.7 167.9 358.9 163.9 362.1 160 365.3 164.5 370.5 166.9 378.1 166 404.4 162.8 429.4 115.3 440.2 91.8 441.9 93 443.8 94.1 445.9 95.1 443.1 101.4 438 112.5 433.6 122 423.9 142.9 428.1 157.6 444.4 156.1 466.4 154 484.9 132.1 488 113.5 490.4 99.8 476.5 100 476.5 100 Z M213.8 116.8 C221.8 115.9 213.3 147.9 189.3 157.9 194.7 140.5 208.4 117.4 213.8 116.8 Z M245.2 169.9 C226.2 175.9 252.2 114.5 263.7 110.5 270.2 108.2 270.4 123.3 266.9 131.9 266.6 132.7 266.3 133.5 266 134.2 263.7 140.2 261.6 145.8 260.1 149.9 257.1 156.5 251.1 168.1 245.2 169.9 Z M403.9 93.5 C412 92.6 403.3 124.8 379.2 134.7 384.3 117.6 398.4 94.1 403.9 93.5 Z" fill="#ffffff" fill-opacity="1" stroke="none"/>
 <path id="Path-5" d="M417 195 C413.9 210.8 416 228.8 419 241.8 424.7 267.1 423.8 301.1 410.5 302.9 397.3 304.8 404.1 269 412.7 249.6 412.7 249.6 409.9 243 401.8 246 396.4 248 391.4 255.9 388.4 265.7 383.6 271 377.3 275.9 370.3 276.6 362.2 277.3 380.4 245.6 385.5 231.7 391.2 216.3 380.5 215.4 368.7 210.6 369 210 377.3 192.8 382.1 179.9 368.7 166.2 351.9 175.6 349.5 197.2 348.5 206.3 350.6 213 355.9 218.4 347 236.9 323.6 282.1 306.4 284.2 301.2 284.8 299.6 281.2 300 275.5 338.1 264.3 351.4 211 323.5 214.5 284.4 219.3 259.7 302.7 300.9 297.7 327.1 294.5 352 247.4 362.9 223.8 364.7 224.9 366.7 226 368.9 227 366.3 233.3 361.2 244.7 356.4 254.2 343.7 279.1 351.3 290.7 366.3 289.3 373.8 288.6 380.1 285.7 385.5 281.3 384.3 299.4 390.7 317.2 411.6 315.7 441.8 313.7 441.5 266.9 434.5 236.4 430.9 220.8 430.6 205.7 433 193.8 438.2 168.4 458.9 163.3 459.1 182.3 459.2 195 452.7 214.3 443.4 223.3 443.4 223.3 446.5 226.4 452.8 225.5 466.7 223.5 476.4 200.5 474.9 182.3 472.3 147.8 425.1 153.2 417 195 Z M326.7 225.3 C334.8 224.4 326.1 256.6 302 266.5 307.2 249.4 321.2 225.9 326.7 225.3 Z" fill="#ffffff" fill-opacity="1" stroke="none"/>
</svg>
