<?xml version="1.0" standalone="no"?>
<!DOCTYPE svg PUBLIC "-//W3C//DTD SVG 20010904//EN"
 "http://www.w3.org/TR/2001/REC-SVG-20010904/DTD/svg10.dtd">
<svg version="1.0" xmlns="http://www.w3.org/2000/svg"
 width="412.000000pt" height="625.000000pt" viewBox="0 0 412.000000 625.000000"
 preserveAspectRatio="xMidYMid meet">

<g transform="translate(0.000000,625.000000) scale(0.100000,-0.100000)"
fill="#000000" stroke="none">
<path d="M1825 6235 c-219 -40 -404 -141 -576 -315 -237 -240 -389 -579 -439
-980 -15 -124 -12 -401 5 -537 21 -156 58 -319 106 -466 22 -65 39 -121 37
-122 -2 -1 -31 2 -66 8 -77 13 -196 -2 -274 -34 -229 -96 -420 -335 -529 -661
-56 -166 -78 -288 -85 -463 -12 -290 44 -518 179 -728 l52 -82 1 -170 c2 -314
77 -549 238 -750 76 -96 145 -152 331 -272 77 -50 286 -186 465 -303 357 -234
433 -277 562 -314 215 -62 407 -57 625 18 330 113 624 413 774 789 76 189 851
2488 874 2591 31 137 9 231 -72 308 -21 20 -126 93 -233 163 -107 70 -199 130
-203 134 -4 4 2 30 14 57 109 249 164 557 140 783 -25 240 -105 426 -242 561
-36 36 -214 158 -507 350 -248 162 -483 314 -522 337 -79 45 -200 87 -300 103
-87 13 -269 11 -355 -5z m451 -218 c195 -64 330 -208 386 -414 28 -103 30
-337 4 -458 -39 -180 -119 -377 -209 -510 -58 -87 -162 -185 -232 -220 -84
-42 -183 -42 -272 -1 -34 15 -71 38 -83 51 l-22 24 59 68 c155 180 299 458
364 703 32 120 33 305 3 370 -30 65 -79 108 -143 127 -69 20 -131 14 -206 -21
-81 -37 -232 -191 -298 -303 -144 -247 -217 -546 -204 -838 10 -217 39 -340
150 -640 448 -1211 244 -2162 -486 -2261 l-47 -6 0 43 c0 52 22 151 52 231 18
51 27 61 73 87 102 58 175 170 216 332 27 108 37 379 19 530 -36 316 -87 508
-285 1069 -139 394 -158 853 -50 1223 126 437 398 740 743 827 64 16 103 19
232 16 135 -3 166 -7 236 -29z m688 -1811 c18 -8 41 -24 50 -37 22 -33 21
-136 -4 -223 -11 -39 -139 -422 -284 -851 -579 -1711 -573 -1695 -696 -1874
-67 -98 -204 -236 -293 -295 -79 -52 -207 -110 -292 -132 -53 -14 -105 -19
-210 -18 -130 0 -147 2 -235 32 -300 100 -478 309 -552 647 -22 99 -16 389 10
507 45 206 121 383 223 518 71 95 137 150 229 194 56 26 76 31 145 30 93 0
142 -20 193 -79 56 -63 54 -74 -30 -157 -158 -156 -282 -365 -335 -564 -33
-125 -38 -330 -10 -431 62 -231 229 -355 436 -323 98 15 217 77 303 158 84 80
136 153 193 276 24 50 205 575 403 1166 198 591 364 1083 367 1093 7 16 -15
17 -373 17 l-380 0 -10 28 c-22 56 -32 109 -32 173 0 80 26 127 80 146 55 19
1059 18 1104 -1z m-2043 -591 c50 -18 112 -74 130 -116 11 -28 9 -32 -88 -132
-54 -56 -119 -134 -145 -172 -94 -142 -168 -323 -184 -447 -6 -43 -14 -61 -48
-98 -90 -97 -186 -268 -245 -435 -18 -49 -34 -91 -36 -94 -8 -7 -46 91 -73
189 -25 88 -27 110 -27 290 0 217 11 288 70 467 94 281 253 478 444 548 49 19
150 18 202 0z"/>
</g>
</svg>
